<svg width="64" height="64" viewBox="0 0 64 64" fill="none" xmlns="http://www.w3.org/2000/svg">
<path d="M42.4412 16.0137C42.4412 16.9868 42.6328 17.9504 43.0052 18.8495C43.3776 19.7486 43.9235 20.5655 44.6116 21.2536C45.2997 21.9417 46.1166 22.4875 47.0157 22.8599C47.9147 23.2323 48.8783 23.424 49.8514 23.424C50.8246 23.424 51.7882 23.2323 52.6872 22.8599C53.5863 22.4875 54.4032 21.9417 55.0913 21.2536C55.7794 20.5655 56.3253 19.7486 56.6977 18.8495C57.0701 17.9504 57.2617 16.9868 57.2617 16.0137C57.2617 14.0484 56.481 12.1635 55.0913 10.7738C53.7016 9.38415 51.8168 8.60342 49.8514 8.60342C47.8861 8.60342 46.0013 9.38415 44.6116 10.7738C43.2219 12.1635 42.4412 14.0484 42.4412 16.0137Z" stroke="#121481" stroke-width="3" stroke-linecap="round" stroke-linejoin="round"/>
<path d="M38.7337 38.2491V34.5463C38.7337 31.5971 39.9053 28.7687 41.9907 26.6833C44.0761 24.5979 46.9045 23.4263 49.8537 23.4263C52.8029 23.4263 55.6313 24.5979 57.7167 26.6833C59.8021 28.7687 60.9737 31.5971 60.9737 34.5463V38.2491M30.1714 38.2583H60.9737M16.4754 25.6549C18.5517 25.6549 20.5429 24.8301 22.0111 23.3619C23.4792 21.8938 24.304 19.9025 24.304 17.8263C24.304 15.75 23.4792 13.7588 22.0111 12.2906C20.5429 10.8225 18.5517 9.99771 16.4754 9.99771C14.3992 9.99771 12.4079 10.8225 10.9398 12.2906C9.47164 13.7588 8.64685 15.75 8.64685 17.8263C8.64685 19.9025 9.47164 21.8938 10.9398 23.3619C12.4079 24.8301 14.3992 25.6549 16.4754 25.6549Z" stroke="#121481" stroke-width="3" stroke-linecap="round" stroke-linejoin="round"/>
<path d="M30.1715 39.3554C30.1715 35.7224 28.7283 32.2382 26.1593 29.6693C23.5904 27.1003 20.1062 25.6571 16.4732 25.6571C12.8402 25.6571 9.35596 27.1003 6.78704 29.6693C4.21811 32.2382 2.7749 35.7224 2.7749 39.3554V45.2251H8.64919L10.6058 60.8777H22.3452L24.3018 45.2251H30.1715V39.3554Z" stroke="#121481" stroke-width="3" stroke-linecap="round" stroke-linejoin="round"/>
</svg>
