<svg width="64" height="64" viewBox="0 0 64 64" fill="none" xmlns="http://www.w3.org/2000/svg">
<path d="M10.6666 37.3333H17.0533C17.8373 37.3333 18.6106 37.5093 19.312 37.8507L24.7573 40.4853C25.4586 40.824 26.232 41 27.0186 41H29.7973C32.4853 41 34.6666 43.1093 34.6666 45.712C34.6666 45.8187 34.5946 45.9093 34.4906 45.9387L27.7146 47.8133C26.4988 48.1492 25.2023 48.0317 24.0666 47.4827L18.2453 44.6667" stroke="#121481" stroke-width="3" stroke-linecap="round" stroke-linejoin="round"/>
<path d="M34.6666 44L46.9146 40.2373C47.9809 39.9102 49.1233 39.9281 50.1787 40.2887C51.2342 40.6493 52.1488 41.3341 52.792 42.2453C53.776 43.6053 53.376 45.5573 51.9413 46.384L31.9013 57.9493C31.2747 58.3119 30.5808 58.5431 29.8619 58.6288C29.1431 58.7145 28.4143 58.653 27.72 58.448L10.6666 53.3867M46.2133 12C47.9535 15.0608 48.4125 18.6856 47.4899 22.0835C46.5674 25.4814 44.3384 28.3765 41.2892 30.137C38.2401 31.8975 34.6183 32.3805 31.2144 31.4805C27.8104 30.5806 24.9006 28.3708 23.12 25.3333M46.2133 12C45.3442 10.4714 44.1813 9.1298 42.7916 8.05244C41.4019 6.97509 39.8128 6.18326 38.1159 5.72254C36.4189 5.26182 34.6475 5.14132 32.9038 5.36797C31.1601 5.59462 29.4784 6.16394 27.9556 7.04316C26.4328 7.92238 25.0989 9.09413 24.0308 10.4909C22.9627 11.8878 22.1814 13.4821 21.732 15.1821C21.2825 16.882 21.1738 18.6541 21.412 20.3963C21.6502 22.1385 22.2307 23.8164 23.12 25.3333M46.2133 12L23.12 25.3333" stroke="#121481" stroke-width="3" stroke-linecap="round" stroke-linejoin="round"/>
</svg>
