<svg width="20" height="15" viewBox="0 0 20 15" fill="none" xmlns="http://www.w3.org/2000/svg">
<g id="Email">
<path id="Vector" d="M18.3333 2.94946V11.2828C18.3333 11.8353 18.1138 12.3652 17.7231 12.7559C17.3324 13.1466 16.8025 13.3661 16.25 13.3661H3.74999C3.19746 13.3661 2.66755 13.1466 2.27685 12.7559C1.88615 12.3652 1.66666 11.8353 1.66666 11.2828V2.94946" stroke="#170F49" stroke-width="1.4" stroke-linecap="round" stroke-linejoin="round"/>
<path id="Vector_2" d="M18.3333 2.94954C18.3333 2.39701 18.1138 1.86711 17.7231 1.47641C17.3324 1.0857 16.8025 0.866211 16.25 0.866211H3.74999C3.19746 0.866211 2.66755 1.0857 2.27685 1.47641C1.88615 1.86711 1.66666 2.39701 1.66666 2.94954L8.89582 7.46343C9.22693 7.67038 9.60953 7.7801 9.99999 7.7801C10.3904 7.7801 10.773 7.67038 11.1042 7.46343L18.3333 2.94954Z" stroke="#170F49" stroke-width="1.4" stroke-linecap="round" stroke-linejoin="round"/>
</g>
</svg>
