<svg width="64" height="64" viewBox="0 0 64 64" fill="none" xmlns="http://www.w3.org/2000/svg">
<path d="M45.3333 32C48.2329 31.9995 51.0532 31.0538 53.367 29.3063C55.6807 27.5588 57.3618 25.1046 58.1553 22.3158C58.9489 19.527 58.8117 16.5555 57.7646 13.8516C56.7175 11.1477 54.8175 8.85889 52.3526 7.33195C49.8877 5.80501 46.9922 5.12319 44.105 5.38982C41.2177 5.65645 38.4961 6.85701 36.3525 8.80954C34.2089 10.7621 32.7602 13.3601 32.226 16.21C31.6918 19.0599 32.1011 22.0063 33.392 24.6027C33.6361 25.0741 33.6996 25.6184 33.5707 26.1333L32.776 29.1013C32.6973 29.3952 32.6974 29.7046 32.7761 29.9984C32.8549 30.2923 33.0096 30.5602 33.2247 30.7753C33.4398 30.9904 33.7078 31.1451 34.0016 31.2239C34.2954 31.3026 34.6048 31.3027 34.8987 31.224L37.8667 30.4293C38.3816 30.3004 38.9259 30.364 39.3973 30.608C41.2413 31.5261 43.2735 32.0026 45.3333 32Z" stroke="#121481" stroke-width="1.5"/>
<path d="M45.3333 24V13.3333M50.6667 18.6667H40" stroke="#121481" stroke-width="1.5" stroke-linecap="round"/>
<path d="M39.0533 44.1147L40.2666 42.8373L37.3653 40.08L36.152 41.3627L39.0533 44.1147ZM44.264 42.296L49.3573 45.232L51.3546 41.7627L46.2586 38.8293L44.264 42.296ZM50.3413 51.3093L46.5546 55.296L49.4533 58.0533L53.24 54.0667L50.3413 51.3093ZM44.2746 56.576C40.448 56.952 30.4613 56.632 19.624 45.224L16.7253 47.976C28.536 60.4107 39.8026 61.04 44.6666 60.5573L44.2746 56.576ZM19.624 45.224C9.28796 34.3413 7.55463 25.16 7.33863 21.1333L3.34396 21.3493C3.61063 26.2827 5.70129 36.3707 16.7253 47.976L19.624 45.224ZM23.2933 27.5227L24.056 26.7173L21.1573 23.9627L20.392 24.768L23.2933 27.5227ZM24.6586 16.6907L21.296 11.9387L18.0293 14.248L21.3893 19.0027L24.6586 16.6907ZM9.91196 10.9093L5.73063 15.32L8.63196 18.0747L12.8186 13.6667L9.91196 10.9093ZM21.8426 26.144C21.3627 25.6815 20.8782 25.2237 20.3893 24.7707L20.384 24.776L20.376 24.784C20.3291 24.8334 20.2846 24.8851 20.2426 24.9387C19.9812 25.2847 19.7744 25.6687 19.6293 26.0773C19.368 26.8107 19.2293 27.7813 19.4053 28.992C19.752 31.3707 21.312 34.568 25.384 38.8587L28.2853 36.1013C24.4773 32.0933 23.5386 29.6267 23.3626 28.4107C23.2773 27.824 23.3626 27.5173 23.3973 27.4187L23.4186 27.368C23.3907 27.4134 23.3576 27.4555 23.32 27.4933L23.3066 27.5067C23.3041 27.5094 23.3014 27.5121 23.2986 27.5147L23.296 27.5173C23.296 27.5173 23.2906 27.5227 21.8426 26.144ZM25.384 38.8587C29.4453 43.136 32.512 44.8133 34.8506 45.1947C36.0533 45.3893 37.0266 45.232 37.7626 44.9413C38.1704 44.7812 38.5496 44.5561 38.8853 44.2747C38.9181 44.2453 38.9501 44.2151 38.9813 44.184L39.0186 44.1467C39.0277 44.1379 39.0366 44.1291 39.0453 44.12C39.0453 44.1147 39.0533 44.1147 37.6026 42.736C36.152 41.36 36.1546 41.3573 36.1546 41.3547L36.16 41.352L36.1653 41.344C36.1698 41.3396 36.1742 41.3352 36.1786 41.3307L36.2053 41.304C36.2366 41.2738 36.2695 41.2453 36.304 41.2187C36.3306 41.2027 36.328 41.208 36.2933 41.2213C36.24 41.2427 36 41.328 35.4933 41.2453C34.4213 41.0693 32.1066 40.1253 28.2853 36.1013L25.384 38.8587ZM21.296 11.9387C18.592 8.11466 13.184 7.46666 9.91463 10.912L12.8106 13.6667C14.2053 12.2 16.664 12.3147 18.0293 14.248L21.296 11.9387ZM7.33863 21.1333C7.27996 20.0667 7.74663 19.0027 8.63196 18.0747L5.73063 15.32C4.30129 16.824 3.21329 18.912 3.34396 21.3493L7.33863 21.1333ZM46.552 55.2987C45.808 56.0827 45.032 56.5013 44.2746 56.576L44.6666 60.5573C46.6586 60.3627 48.272 59.2987 49.4533 58.0533L46.552 55.2987ZM24.056 26.72C26.64 24 26.8186 19.752 24.6586 16.6933L21.392 19.0027C22.5173 20.5947 22.344 22.7147 21.1573 23.9627L24.056 26.72ZM49.3573 45.232C51.5466 46.4933 51.976 49.592 50.3413 51.312L53.24 54.0667C56.72 50.4027 55.7066 44.2693 51.3546 41.7627L49.3573 45.232ZM40.2666 42.8373C41.2933 41.7547 42.896 41.512 44.264 42.2987L46.2586 38.832C43.328 37.1467 39.6986 37.632 37.3653 40.0853L40.2666 42.8373Z" fill="#121481"/>
</svg>
