<svg width="64" height="64" viewBox="0 0 64 64" fill="none" xmlns="http://www.w3.org/2000/svg">
<path d="M40 10.6667C45.658 10.6667 51.0842 12.9143 55.085 16.915C59.0857 20.9158 61.3334 26.342 61.3334 32C61.3334 37.6579 59.0857 43.0842 55.085 47.0849C51.0842 51.0857 45.658 53.3333 40 53.3333C34.3421 53.3333 28.9159 51.0857 24.9151 47.0849C20.9143 43.0842 18.6667 37.6579 18.6667 32C18.6667 26.342 20.9143 20.9158 24.9151 16.915C28.9159 12.9143 34.3421 10.6667 40 10.6667ZM40 16C35.7566 16 31.6869 17.6857 28.6863 20.6863C25.6857 23.6869 24 27.7565 24 32C24 36.2435 25.6857 40.3131 28.6863 43.3137C31.6869 46.3143 35.7566 48 40 48C44.2435 48 48.3131 46.3143 51.3137 43.3137C54.3143 40.3131 56 36.2435 56 32C56 27.7565 54.3143 23.6869 51.3137 20.6863C48.3131 17.6857 44.2435 16 40 16ZM37.3334 21.3333H41.3334V31.4133L47.5467 37.6267L44.72 40.4533L37.3334 33.0667V21.3333ZM5.33335 48C4.62611 48 3.94783 47.719 3.44774 47.2189C2.94764 46.7188 2.66669 46.0406 2.66669 45.3333C2.66669 44.6261 2.94764 43.9478 3.44774 43.4477C3.94783 42.9476 4.62611 42.6667 5.33335 42.6667H15.5467C16.3734 44.56 17.44 46.3467 18.6667 48H5.33335ZM8.00002 34.6667C7.29278 34.6667 6.6145 34.3857 6.1144 33.8856C5.61431 33.3855 5.33335 32.7072 5.33335 32C5.33335 31.2927 5.61431 30.6145 6.1144 30.1144C6.6145 29.6143 7.29278 29.3333 8.00002 29.3333H13.4667L13.3334 32L13.4667 34.6667H8.00002ZM10.6667 21.3333C9.95944 21.3333 9.28117 21.0524 8.78107 20.5523C8.28097 20.0522 8.00002 19.3739 8.00002 18.6667C8.00002 17.9594 8.28097 17.2811 8.78107 16.781C9.28117 16.2809 9.95944 16 10.6667 16H18.6667C17.44 17.6533 16.3734 19.44 15.5467 21.3333H10.6667Z" fill="#003591"/>
</svg>
