<svg width="87" height="87" viewBox="0 0 87 87" fill="none" xmlns="http://www.w3.org/2000/svg">
<g id="emojione:pregnant-woman-dark-skin-tone">
<path id="Vector" d="M54.2389 37.1109L42.6842 36.2953C42.6842 42.8203 28.5467 45.8109 28.5467 50.9765C28.5467 54.6468 31.9451 55.5984 31.9451 55.5984C31.9451 55.5984 21.2061 59.6765 21.2061 71.0953C21.2061 80.2031 28.4107 84.1453 36.9748 84.1453H50.9764C50.9764 84.1453 51.9279 81.4265 50.1607 71.775C46.7623 52.8797 60.492 56.0062 54.2389 37.1109Z" fill="#E84D88"/>
<path id="Vector_2" d="M27.7314 63.4828L28.5471 61.5797L30.0424 61.1719C33.7127 61.1719 34.8002 63.4828 36.7033 63.4828V71.2313C36.7033 71.2313 35.208 72.5906 29.3627 72.5906C26.508 72.5906 24.6049 70.6875 23.7892 66.6094C22.8377 63.3469 27.7314 63.4828 27.7314 63.4828Z" fill="#8A6859"/>
<path id="Vector_3" d="M30.0422 61.1719C30.0422 61.1719 28.411 61.5797 28.411 62.5312C28.411 63.075 30.3141 62.3953 31.6735 63.8906C29.7704 62.9391 27.5954 63.4828 27.5954 63.4828C26.7797 62.6672 27.4594 61.1719 30.0422 61.1719Z" fill="#705041"/>
<path id="Vector_4" opacity="0.3" d="M35.3437 62.8031C43.2281 61.1719 51.1125 58.5891 51.1125 58.5891L49.8891 68.9203L50.1609 70.5516C50.1609 70.5516 45.4031 73.1344 35.4797 73.95V73.1344C35.4797 73.1344 28.1391 74.2219 25.8281 71.5031C29.4984 73.1344 35.3437 71.2313 35.3437 71.2313V62.8031ZM48.6656 42.8203L54.2391 52.6078L52.4719 56.0063L48.6656 42.8203Z" fill="#231F20"/>
<path id="Vector_5" d="M57.3655 37.111C57.3655 37.111 67.8327 53.1516 66.4733 59.8125C64.978 67.425 36.1593 71.775 36.1593 71.775L35.7515 63.075C35.7515 63.075 53.5593 58.861 55.8702 55.7344C54.3749 52.336 48.6655 42.6844 48.6655 42.6844L57.3655 37.111Z" fill="#E84D88"/>
<path id="Vector_6" d="M38.6064 35.7516L50.0252 15.6328L50.2971 36.4312C45.5393 38.4703 42.8205 36.4312 42.8205 36.4312C41.3252 33.7125 38.6064 35.7516 38.6064 35.7516Z" fill="#705041"/>
<path id="Vector_7" d="M54.7829 12.3703C50.161 3.26253 42.6845 3.80628 42.6845 3.80628C33.3048 -0.40778 23.2454 8.70003 21.3423 13.8657C17.4001 24.3328 26.5079 28.5469 27.7313 27.5953L47.1704 21.4782C47.1704 21.4782 51.1126 25.5563 49.3454 33.7125C47.5782 41.7328 55.7345 47.7141 55.7345 47.7141C55.7345 47.7141 63.7548 30.3141 54.7829 12.3703Z" fill="#231F20"/>
<path id="Vector_8" d="M23.3812 16.8563C23.1094 14.0016 28.9547 14.5453 32.0812 17.6719C38.8781 24.6047 40.9172 22.8375 40.9172 22.8375C40.5094 22.2938 40.2375 21.6141 40.1015 20.9344C39.4219 18.2157 40.3734 15.6328 42.4125 15.225C44.4515 14.8172 46.7625 16.7203 47.4422 19.4391C48.1219 21.886 47.3062 24.1969 45.675 25.0125C48.1219 32.4891 45.8109 32.625 42.2765 35.3438C34.664 41.5969 33.4406 39.9657 32.625 37.5188C32.2172 36.4313 31.4015 36.975 30.45 36.8391C30.45 36.8391 30.314 36.1594 29.6344 34.3922C29.0906 32.625 27.3234 32.8969 27.8672 31.9453C28.4109 30.9938 28.6828 30.45 28.275 29.9063C28.139 29.6344 26.3719 30.45 25.8281 29.4985C24.8765 27.8672 27.3234 27.5953 26.9156 24.6047C26.9156 22.9735 23.925 22.7016 23.3812 16.8563Z" fill="#8A6859"/>
<path id="Vector_9" d="M30.4498 32.8969C29.9061 32.8969 29.4982 32.7609 29.0904 32.625C28.6826 32.489 28.2748 32.2172 28.2748 31.5375C28.0029 31.6734 28.0029 32.0812 28.0029 32.489C28.1389 32.8968 28.4107 33.1687 28.6826 33.4406C28.9545 33.7125 29.2264 33.8484 29.4982 33.9843C29.3623 34.2562 29.3623 34.664 29.4982 35.0718C29.6342 35.4797 29.7701 35.7515 29.9061 36.0234C30.1779 36.2953 30.3139 36.5672 30.5857 36.7031C30.5857 36.0234 30.4498 35.4797 30.4498 35.0718C30.4498 34.9359 30.5857 34.664 30.5857 34.5281C30.7217 34.3922 30.8576 34.1203 30.9936 33.9843L31.6732 32.8969H30.4498Z" fill="#C94747"/>
<path id="Vector_10" d="M42.5486 16.8562C42.0048 17.1281 41.597 17.5359 41.4611 18.0797C41.1892 18.6234 41.1892 19.3031 41.3251 19.8469C41.4611 20.3906 41.597 20.7984 41.8689 21.2063C41.597 21.2063 41.4611 21.3422 41.3251 21.4781C41.597 21.4781 41.8689 21.6141 42.0048 21.75C42.1408 21.8859 42.4126 22.0219 42.5486 22.1578C42.6845 22.2937 42.8204 22.4297 42.9564 22.7016C43.0923 22.8375 43.0923 23.1094 43.2283 23.5172C43.5001 23.3812 43.6361 22.9734 43.6361 22.7016C43.6361 22.2938 43.5001 21.8859 43.2283 21.6141C42.9564 21.3422 42.6845 21.0703 42.2767 21.0703H42.0048C41.8689 19.9828 41.8689 19.1672 42.1408 18.3516C42.2767 17.9438 42.5486 17.5359 42.9564 17.2641C43.2283 16.9922 43.6361 16.5844 44.0439 16.3125C43.6361 16.4484 43.0923 16.5844 42.5486 16.8562Z" fill="#574137"/>
<path id="Vector_11" d="M28.4107 24.1968C28.2748 23.6531 28.1389 23.3812 27.867 23.1094C27.5951 22.8375 27.3232 22.4297 27.0514 22.0219C26.7795 21.614 26.6436 20.9344 26.6436 20.3906C26.7795 19.8469 27.0514 19.439 27.4592 19.3031C27.3232 19.7109 27.3232 20.2547 27.3232 20.5265C27.3232 20.7984 27.4592 21.2062 27.7311 21.614C27.867 22.0219 28.2748 22.4297 28.4107 22.8375C28.6826 23.1093 28.8186 23.789 28.4107 24.1968Z" fill="#705041"/>
<path id="Vector_12" d="M32.217 20.3906C31.8092 20.7984 31.6732 21.3422 31.4014 21.8859C31.2654 22.4297 30.9936 22.9734 30.5857 23.3812C30.3139 23.925 29.7701 24.3328 29.2264 24.6047C28.6826 24.8765 27.867 24.8765 27.3232 24.4687C28.5467 24.0609 28.9545 23.3812 29.4982 22.5656C29.7701 22.1578 30.042 21.75 30.4498 21.2062C30.9936 20.6625 31.5373 20.2547 32.217 20.3906Z" fill="#574137"/>
</g>
</svg>
